<svg width="69" height="41" viewBox="0 0 69 41" fill="none" xmlns="http://www.w3.org/2000/svg">
<path d="M32.6035 6.5C37.0218 6.5 40.6035 10.0817 40.6035 14.5C40.6035 15.9912 40.1957 17.3873 39.4853 18.5825C38.921 19.532 38.8939 20.7904 39.675 21.5714L44.25 26.1465C44.4452 26.3417 44.4452 26.6583 44.25 26.8535C44.0548 27.0488 43.7382 27.0488 43.543 26.8535L38.7549 22.0654C38.0418 21.3524 36.9181 21.3094 36.0061 21.7397C34.9738 22.2269 33.8209 22.5 32.6035 22.5C28.1852 22.5 24.6035 18.9183 24.6035 14.5C24.6035 10.0817 28.1852 6.5 32.6035 6.5ZM32.6035 7.5C28.7375 7.5 25.6035 10.634 25.6035 14.5C25.6035 18.366 28.7375 21.5 32.6035 21.5C36.4695 21.5 39.6035 18.366 39.6035 14.5C39.6035 10.634 36.4695 7.5 32.6035 7.5Z" fill="black"/>
<path d="M36.0061 21.7397L35.7927 21.2876L36.0061 21.7397ZM39.4853 18.5825L39.0555 18.327L39.4853 18.5825ZM32.6035 6.5V7C36.7457 7 40.1035 10.3579 40.1035 14.5H40.6035H41.1035C41.1035 9.80558 37.2979 6 32.6035 6V6.5ZM40.6035 14.5H40.1035C40.1035 15.8989 39.7212 17.207 39.0555 18.327L39.4853 18.5825L39.9151 18.8379C40.6702 17.5676 41.1035 16.0835 41.1035 14.5H40.6035ZM39.675 21.5714L39.3214 21.925L43.8964 26.5L44.25 26.1465L44.6036 25.7929L40.0285 21.2179L39.675 21.5714ZM43.543 26.8535L43.8965 26.5L39.1084 21.7119L38.7549 22.0654L38.4013 22.419L43.1894 27.2071L43.543 26.8535ZM36.0061 21.7397L35.7927 21.2876C34.8256 21.744 33.7453 22 32.6035 22V22.5V23C33.8964 23 35.1221 22.7098 36.2195 22.1919L36.0061 21.7397ZM32.6035 22.5V22C28.4614 22 25.1035 18.6421 25.1035 14.5H24.6035H24.1035C24.1035 19.1944 27.9091 23 32.6035 23V22.5ZM24.6035 14.5H25.1035C25.1035 10.3579 28.4614 7 32.6035 7V6.5V6C27.9091 6 24.1035 9.80558 24.1035 14.5H24.6035ZM32.6035 7.5V7C28.4614 7 25.1035 10.3579 25.1035 14.5H25.6035H26.1035C26.1035 10.9101 29.0137 8 32.6035 8V7.5ZM25.6035 14.5H25.1035C25.1035 18.6421 28.4614 22 32.6035 22V21.5V21C29.0137 21 26.1035 18.0899 26.1035 14.5H25.6035ZM32.6035 21.5V22C36.7457 22 40.1035 18.6421 40.1035 14.5H39.6035H39.1035C39.1035 18.0899 36.1934 21 32.6035 21V21.5ZM39.6035 14.5H40.1035C40.1035 10.3579 36.7457 7 32.6035 7V7.5V8C36.1934 8 39.1035 10.9101 39.1035 14.5H39.6035ZM38.7549 22.0654L39.1084 21.7119C38.2041 20.8075 36.8355 20.7955 35.7927 21.2876L36.0061 21.7397L36.2195 22.1919C37.0007 21.8233 37.8796 21.8972 38.4013 22.419L38.7549 22.0654ZM44.25 26.8535L43.8964 26.5H43.8965L43.543 26.8535L43.1894 27.2071C43.5799 27.5976 44.2131 27.5976 44.6036 27.2071L44.25 26.8535ZM44.25 26.1465L43.8964 26.5V26.5L44.25 26.8535L44.6036 27.2071C44.9941 26.8166 44.9941 26.1834 44.6036 25.7929L44.25 26.1465ZM39.4853 18.5825L39.0555 18.327C38.4136 19.407 38.33 20.9336 39.3214 21.925L39.675 21.5714L40.0285 21.2179C39.4578 20.6471 39.4284 19.657 39.9151 18.8379L39.4853 18.5825Z" fill="black"/>
<path d="M20.1162 40.0859C19.7402 40.0859 19.5146 39.8495 19.5146 39.4628V32.8725C19.5146 32.4858 19.7402 32.2495 20.1162 32.2495H25.2026C25.5786 32.2495 25.8042 32.4858 25.8042 32.8725V39.4628C25.8042 39.8495 25.5786 40.0859 25.2026 40.0859C24.832 40.0859 24.6011 39.8495 24.6011 39.4628V33.2968H20.7178V39.4628C20.7178 39.8495 20.4868 40.0859 20.1162 40.0859ZM29.623 40.1074C28.0063 40.1074 26.9429 38.9955 26.9429 37.1747C26.9429 35.3593 28.0117 34.2475 29.623 34.2475C31.2344 34.2475 32.3032 35.3593 32.3032 37.1747C32.3032 38.9955 31.2397 40.1074 29.623 40.1074ZM29.623 39.1513C30.5361 39.1513 31.1216 38.4316 31.1216 37.1747C31.1216 35.9233 30.5308 35.2036 29.623 35.2036C28.7153 35.2036 28.1245 35.9233 28.1245 37.1747C28.1245 38.4316 28.7153 39.1513 29.623 39.1513ZM33.936 40.102C33.5225 40.102 33.3022 39.8549 33.3022 39.4575V34.8437C33.3022 34.4731 33.5386 34.2475 33.8716 34.2475C34.2046 34.2475 34.4463 34.4731 34.4463 34.8437V38.308H34.4893L36.8794 34.6879C37.0889 34.3657 37.2876 34.2475 37.6045 34.2475C37.9912 34.2475 38.2437 34.4946 38.2437 34.892V39.5058C38.2437 39.8818 38.002 40.102 37.6689 40.102C37.3359 40.102 37.0996 39.8818 37.0996 39.5058V36.0307H37.0566L34.6611 39.6669C34.4517 39.9892 34.2529 40.102 33.936 40.102ZM41.9067 40.1074C40.29 40.1074 39.2373 38.9848 39.2373 37.1855C39.2373 35.3969 40.2847 34.2475 41.896 34.2475C42.9863 34.2475 43.9209 34.8276 44.168 35.6171C44.2056 35.7084 44.2217 35.8051 44.2217 35.8857C44.2217 36.1811 44.0122 36.3637 43.7275 36.3637C43.4805 36.3637 43.3408 36.267 43.2012 36.0092C42.9111 35.4721 42.5137 35.2143 41.9229 35.2143C41.0098 35.2143 40.4189 35.9716 40.4189 37.1747C40.4189 38.4047 41.0205 39.1352 41.9175 39.1352C42.5459 39.1352 42.9272 38.8559 43.2012 38.3671C43.3623 38.0878 43.4912 37.9911 43.7383 37.9911C44.0229 37.9911 44.2324 38.1845 44.2324 38.4745C44.2324 38.5659 44.2109 38.6625 44.168 38.7753C43.8726 39.5541 42.9541 40.1074 41.9067 40.1074ZM45.8276 40.102C45.4839 40.102 45.2583 39.8818 45.2583 39.5434V34.8115C45.2583 34.4677 45.4839 34.2475 45.8276 34.2475C46.1768 34.2475 46.4131 34.4677 46.4131 34.8115V36.7665H46.4561L48.7388 34.457C48.8838 34.3012 48.9966 34.2475 49.1685 34.2475C49.4585 34.2475 49.6841 34.4516 49.6841 34.7309C49.6841 34.8813 49.6465 34.978 49.5015 35.1176L47.5518 37.0029L49.5928 39.1674C49.7163 39.3071 49.7646 39.4252 49.7646 39.5703C49.7646 39.871 49.5391 40.102 49.2329 40.102C49.0073 40.102 48.8569 40.0107 48.7173 39.8442L46.4561 37.395H46.4131V39.5434C46.4131 39.8818 46.1768 40.102 45.8276 40.102Z" fill="black"/>
</svg>
